<svg xmlns="http://www.w3.org/2000/svg" xmlns:xlink="http://www.w3.org/1999/xlink" viewBox="0 0 441.98 93.02"><defs><style>.cls-1{fill:#111;}.cls-2{fill:url(#linear-gradient);}.cls-3{fill:url(#linear-gradient-2);}</style><linearGradient id="linear-gradient" x1="170.43" y1="72.88" x2="198.62" y2="72.88" gradientUnits="userSpaceOnUse"><stop offset="0" stop-color="#90c260"/><stop offset="0.72" stop-color="#59bd7d"/></linearGradient><linearGradient id="linear-gradient-2" x1="164.25" y1="51.66" x2="204.77" y2="51.66" xlink:href="#linear-gradient"/></defs><title>Asset 13</title><g id="Layer_2" data-name="Layer 2"><g id="Layer_1-2" data-name="Layer 1"><path class="cls-1" d="M.08.31H1.75V5.42H8.12V.31H9.79v12.3H8.12V7H1.75v5.63H.08Z"/><path class="cls-1" d="M15.16.31V7.85A5,5,0,0,0,15.31,9a3.68,3.68,0,0,0,.52,1.14,2.8,2.8,0,0,0,2.42,1.18A3,3,0,0,0,19.71,11a2.79,2.79,0,0,0,.95-.85A3.49,3.49,0,0,0,21.19,9a5,5,0,0,0,.15-1.19V.31H23v7.8a5,5,0,0,1-.37,2,4.62,4.62,0,0,1-1,1.52,4.82,4.82,0,0,1-1.51,1,5.37,5.37,0,0,1-3.76,0,4.71,4.71,0,0,1-1.51-1,4.81,4.81,0,0,1-1-1.52,5.14,5.14,0,0,1-.36-2V.31Z"/><path class="cls-1" d="M26.59.31h2.48L33,9.62h.07L36.92.31h2.49v12.3H37.74V2.5h0L33.55,12.61H32.44L28.29,2.5h0V12.61H26.59Z"/><path class="cls-1" d="M47.07.31h1.51l5.26,12.3H51.9l-1.24-3H44.81l-1.22,3H41.65Zm3,7.8-2.3-5.64h0L45.4,8.11Z"/><path class="cls-1" d="M56.2.31h2.19l6.78,10.11h0V.31h1.67v12.3H64.75L57.91,2.5h0V12.61H56.2Z"/><path class="cls-1" d="M70.79.31h7.94V1.88H72.46V5.54H78.3V7.1H72.46v4h6.59v1.56H70.79Z"/><path class="cls-1" d="M87.33,6.67h4v-4h1.36v4h4V8h-4v4H91.29V8h-4Z"/><path class="cls-1" d="M106.06,10a2.77,2.77,0,0,0,1.15,1,3.55,3.55,0,0,0,1.45.32,2.83,2.83,0,0,0,.85-.13,2.65,2.65,0,0,0,.79-.39,2.12,2.12,0,0,0,.59-.64,1.73,1.73,0,0,0,.22-.89,1.35,1.35,0,0,0-.45-1.09,4.09,4.09,0,0,0-1.12-.62c-.45-.17-.93-.33-1.46-.49a5.65,5.65,0,0,1-1.46-.65,3.63,3.63,0,0,1-1.12-1.12,3.49,3.49,0,0,1-.45-1.9,3.36,3.36,0,0,1,.23-1.15A3.43,3.43,0,0,1,106,1.18a4.11,4.11,0,0,1,1.3-.84,4.71,4.71,0,0,1,1.9-.34,6.53,6.53,0,0,1,1.93.28,3.25,3.25,0,0,1,1.61,1.13l-1.35,1.23a2.34,2.34,0,0,0-.89-.78,2.74,2.74,0,0,0-1.3-.3,3,3,0,0,0-1.16.19,2,2,0,0,0-.73.46,1.77,1.77,0,0,0-.4.62,2,2,0,0,0-.11.61,1.56,1.56,0,0,0,.45,1.2,3.64,3.64,0,0,0,1.12.68,13.2,13.2,0,0,0,1.46.46,6.11,6.11,0,0,1,1.46.59,3.36,3.36,0,0,1,1.12,1,3,3,0,0,1,.45,1.75,3.78,3.78,0,0,1-.33,1.6,3.63,3.63,0,0,1-.92,1.2,4,4,0,0,1-1.35.74,5.08,5.08,0,0,1-1.67.26,6.23,6.23,0,0,1-2.24-.41,3.63,3.63,0,0,1-1.68-1.29Z"/><path class="cls-1" d="M117.56.31V7.85A5,5,0,0,0,117.71,9a3.68,3.68,0,0,0,.52,1.14,2.8,2.8,0,0,0,2.42,1.18,3,3,0,0,0,1.46-.33,2.79,2.79,0,0,0,1-.85A3.27,3.27,0,0,0,123.58,9a4.59,4.59,0,0,0,.16-1.19V.31h1.67v7.8a5,5,0,0,1-.37,2,4.45,4.45,0,0,1-2.52,2.51,5,5,0,0,1-1.87.34,5.06,5.06,0,0,1-1.88-.34,4.71,4.71,0,0,1-1.51-1,4.81,4.81,0,0,1-1-1.52,5.14,5.14,0,0,1-.36-2V.31Z"/><path class="cls-1" d="M129.47,10a2.79,2.79,0,0,0,1.16,1,3.51,3.51,0,0,0,1.45.32,2.83,2.83,0,0,0,.85-.13,2.77,2.77,0,0,0,.79-.39,2.09,2.09,0,0,0,.58-.64,1.73,1.73,0,0,0,.23-.89,1.35,1.35,0,0,0-.45-1.09A4.41,4.41,0,0,0,133,7.6c-.45-.17-.94-.33-1.46-.49A5.51,5.51,0,0,1,130,6.46a3.52,3.52,0,0,1-1.12-1.12,3.49,3.49,0,0,1-.46-1.9,3.16,3.16,0,0,1,.24-1.15,3.27,3.27,0,0,1,.74-1.11,4,4,0,0,1,1.29-.84,4.74,4.74,0,0,1,1.9-.34,6.44,6.44,0,0,1,1.93.28,3.28,3.28,0,0,1,1.62,1.13l-1.36,1.23a2.31,2.31,0,0,0-.88-.78,2.81,2.81,0,0,0-1.31-.3,3,3,0,0,0-1.15.19,2.08,2.08,0,0,0-.74.46,1.78,1.78,0,0,0-.5,1.23,1.56,1.56,0,0,0,.45,1.2,3.53,3.53,0,0,0,1.12.68,12,12,0,0,0,1.46.46,6.47,6.47,0,0,1,1.46.59,3.46,3.46,0,0,1,1.12,1,3,3,0,0,1,.45,1.75,3.64,3.64,0,0,1-.34,1.6,3.74,3.74,0,0,1-.91,1.2,4.06,4.06,0,0,1-1.36.74,5,5,0,0,1-1.66.26,6.19,6.19,0,0,1-2.24-.41,3.71,3.71,0,0,1-1.69-1.29Z"/><path class="cls-1" d="M142.1,1.88h-4V.31h9.59V1.88h-4V12.61H142.1Z"/><path class="cls-1" d="M152.52.31H154l5.27,12.3h-2l-1.23-3h-5.85l-1.22,3h-2Zm3,7.8-2.29-5.64h0l-2.32,5.64Z"/><path class="cls-1" d="M161.66.31h1.67v12.3h-1.67Z"/><path class="cls-1" d="M167.25.31h2.19l6.78,10.11h0V.31h1.67v12.3H175.8L169,2.5h0V12.61h-1.67Z"/><path class="cls-1" d="M185.7.31h1.51l5.27,12.3h-1.95l-1.23-3h-5.86l-1.21,3h-1.95Zm3,7.8L186.4,2.47h0L184,8.11Z"/><path class="cls-1" d="M194.84.31h4.27A5.9,5.9,0,0,1,200.6.5a3.6,3.6,0,0,1,1.18.57,2.68,2.68,0,0,1,.78,1,3.1,3.1,0,0,1,.29,1.37,2.51,2.51,0,0,1-.6,1.73,3.49,3.49,0,0,1-1.52,1v0a2.53,2.53,0,0,1,1,.29,3,3,0,0,1,.84.66,3.2,3.2,0,0,1,.57.94,3.42,3.42,0,0,1,.2,1.17,3.07,3.07,0,0,1-.34,1.47,3.15,3.15,0,0,1-.92,1.07,4.9,4.9,0,0,1-1.38.66,6,6,0,0,1-1.68.22h-4.22Zm1.67,5.11h2.27a3.68,3.68,0,0,0,.89-.1A2,2,0,0,0,200.4,5a1.69,1.69,0,0,0,.49-.57,1.84,1.84,0,0,0,.18-.85,1.84,1.84,0,0,0-.47-1.27,1.84,1.84,0,0,0-1.47-.54h-2.62Zm0,5.73H199a4.41,4.41,0,0,0,.85-.08,2.47,2.47,0,0,0,.86-.31,2.23,2.23,0,0,0,.67-.63,1.8,1.8,0,0,0,.28-1.06,1.94,1.94,0,0,0-.71-1.64A3.07,3.07,0,0,0,199,6.88h-2.46Z"/><path class="cls-1" d="M206.54.31h1.67V11.05h5.65v1.56h-7.32Z"/><path class="cls-1" d="M216.32.31h7.94V1.88H218V5.54h5.84V7.1H218v4h6.59v1.56h-8.26Z"/><path class="cls-1" d="M38.18,29v49.7H32V56.09H6.23V78.68H0V29H6.23V50.12H32V29Z"/><path class="cls-1" d="M51.47,62.5V40.34h6V61.53c0,7.53,4.2,12.15,11,12.15s11-4.68,11-12.15V40.34h6V62.5c0,10.29-6.63,17-17,17S51.47,72.79,51.47,62.5Z"/><path class="cls-1" d="M154.26,54.16V78.68h-6V56c0-6.9-3.2-11-8.68-11s-10.22,5.39-10.23,12.42V78.68h-5.9V56c0-6.91-3.2-11-8.74-11s-10.23,5.39-10.23,12.42V78.68h-6V40.34h4.35l1,5.26A15.51,15.51,0,0,1,116,39.5a12.5,12.5,0,0,1,11.75,7.27,15.4,15.4,0,0,1,13-7.27C148.9,39.5,154.26,45.59,154.26,54.16Z"/><path class="cls-2" d="M198.6,73.46c0-.15,0-.3,0-.45a15,15,0,0,0-1.56-6.77,13.62,13.62,0,0,1-12.51,7.44A13.78,13.78,0,0,1,172,66.28,14.74,14.74,0,0,0,170.43,73c0,.44,0,.88.06,1.31a19.76,19.76,0,0,0,13.6,5.2A19.52,19.52,0,0,0,198.6,73.46Z"/><path class="cls-3" d="M170.85,55.92a13.72,13.72,0,0,1,13.7-10.58A13.58,13.58,0,0,1,198.2,56l.29-2.32.17-1.31h6.11v-12H200l-.76,5.88a19.4,19.4,0,0,0-15.12-6.72c-11.33,0-19.84,8.53-19.84,20a21.82,21.82,0,0,0,.43,4.32A20.57,20.57,0,0,1,170.85,55.92Z"/><path class="cls-1" d="M204.79,53.84V92.18h-5l-.64-5.81a19.42,19.42,0,0,1-15,6.65c-11.34,0-19.84-8.59-19.84-20s8.5-20,19.84-20a19.42,19.42,0,0,1,15.12,6.72l.75-5.88ZM198.62,73c0-8.15-5.93-14.17-14.06-14.17A13.81,13.81,0,0,0,170.43,73a13.8,13.8,0,0,0,14.13,14.17C192.69,87.18,198.62,81.16,198.62,73Z"/><path class="cls-1" d="M218.1,40.28h6.53V47.2H218.1Zm.25,13.56h6V92.18h-6Z"/><path class="cls-1" d="M271.93,69.21v23h-6V70.64c0-7.78-3.66-12.12-10.32-12.12S244,64.07,244,71.26V92.18h-6V53.84h4.29l1.17,6c2.89-4.27,7.8-6.85,13.73-6.85C266.24,53,271.93,59.84,271.93,69.21Z"/><path class="cls-1" d="M322.43,53.84V92.18h-5l-.63-5.81A19.44,19.44,0,0,1,301.75,93c-11.33,0-19.84-8.59-19.84-20s8.51-20,19.84-20a19.42,19.42,0,0,1,15.13,6.72l.75-5.88ZM316.27,73c0-8.15-5.93-14.17-14.06-14.17A13.81,13.81,0,0,0,288.08,73a13.8,13.8,0,0,0,14.13,14.17C310.34,87.18,316.27,81.16,316.27,73Z"/><path class="cls-1" d="M356.22,53C367.78,53,376,61.53,376,73s-8.21,20-19.77,20a19.61,19.61,0,0,1-14.74-6.3l-.81,5.46H336v-52h6V58.7A19.67,19.67,0,0,1,356.22,53Zm13.61,20c0-8.16-5.93-14.17-14.06-14.17a14.17,14.17,0,0,0,0,28.34C363.9,87.18,369.83,81.16,369.83,73Z"/><path class="cls-1" d="M386.54,40.16h6v52h-6Z"/><path class="cls-1" d="M441.86,75.35H409.17c.95,7.1,6.23,11.76,13.49,11.76a13.24,13.24,0,0,0,11.94-6.62H441C437.72,88.4,431,93,422.66,93c-11.12,0-19.55-8.59-19.55-20s8.43-20,19.55-20C434.3,53,442,62,442,73.17,442,73.89,441.92,74.62,441.86,75.35Zm-32.55-5.58h26.63a13.54,13.54,0,0,0-26.63,0Z"/></g></g></svg>